<?xml version="1.0" encoding="UTF-8" standalone="no"?>
<!-- Created with Inkscape (http://www.inkscape.org/) -->

<svg
   version="1.1"
   id="svg2"
   width="297.84"
   height="297.84"
   viewBox="0 0 297.84 297.84"
   sodipodi:docname="Mar_Hall_Reg_Trade_Quatrefoil_AW_rgb_black.eps"
   xmlns:inkscape="http://www.inkscape.org/namespaces/inkscape"
   xmlns:sodipodi="http://sodipodi.sourceforge.net/DTD/sodipodi-0.dtd"
   xmlns="http://www.w3.org/2000/svg"
   xmlns:svg="http://www.w3.org/2000/svg">
  <defs
     id="defs6" />
  <sodipodi:namedview
     id="namedview4"
     pagecolor="#ffffff"
     bordercolor="#000000"
     borderopacity="0.25"
     inkscape:showpageshadow="2"
     inkscape:pageopacity="0.0"
     inkscape:pagecheckerboard="0"
     inkscape:deskcolor="#d1d1d1" />
  <g
     id="g8"
     inkscape:groupmode="layer"
     inkscape:label="ink_ext_XXXXXX"
     transform="matrix(1.3333333,0,0,-1.3333333,0,297.84)">
    <g
       id="g10"
       transform="scale(0.1)">
      <path
         d="m 640.883,640.891 -4.031,-17.981 c -7.918,-35.301 -11.938,-71.5 -11.938,-107.601 0,-270.227 219.832,-490.9184 490.036,-491.9574 l 1.95,-0.0118 c 270.98,0 491.69,220.4922 491.94,491.5002 0.03,36.281 -3.98,72.64 -11.94,108.082 l -4.03,17.976 17.98,-4.039 c 35.31,-7.918 71.53,-11.937 107.65,-11.937 131.05,0 254.57,51.476 347.82,144.949 93.25,93.469 144.45,217.117 144.14,348.179 -0.63,270.63 -221.32,490.79 -491.96,490.79 -36.12,0 -72.34,-4.02 -107.65,-11.94 l -17.98,-4.04 4.04,17.98 c 7.95,35.44 11.96,71.81 11.93,108.09 -0.26,271.03 -220.97,491.53 -491.99,491.53 h -2 c -270.139,-1.08 -489.936,-221.8 -489.936,-492.01 0,-36.11 4.016,-72.31 11.93,-107.6 l 4.035,-17.98 -17.977,4.03 c -35.293,7.92 -71.496,11.94 -107.597,11.94 h -0.571 C 383.66,1608.7 260.16,1557.03 166.996,1463.37 73.8164,1369.7 22.8008,1245.9 23.3477,1114.79 23.8984,983.82 75.3086,860.781 168.121,768.32 260.965,675.852 384.262,624.922 515.305,624.922 c 36.101,0 72.3,4.019 107.601,11.93 z M 1116.85,0 1114.86,0.0117188 C 831.836,1.08984 601.57,232.262 601.57,515.309 c 0,31.851 2.985,63.781 8.879,95.14 -31.371,-5.89 -63.293,-8.871 -95.144,-8.871 -137.262,0 -266.41,53.344 -363.66,150.203 C 54.4297,848.629 0.574219,977.512 0.00390625,1114.69 -0.566406,1252.05 52.8633,1381.73 150.445,1479.83 c 97.571,98.1 226.942,152.2 364.278,152.36 h 0.582 c 31.855,-0.01 63.781,-2.99 95.14,-8.89 -5.89,31.37 -8.875,63.29 -8.875,95.15 0,283.03 230.227,514.22 513.21,515.35 l 2.04,0.01 c 283.91,-0.01 515.09,-230.97 515.36,-514.85 0.03,-32.04 -2.95,-64.14 -8.88,-95.66 31.39,5.9 63.33,8.89 95.2,8.89 283.48,0 514.64,-230.62 515.31,-514.09 0.32,-137.299 -53.3,-266.83 -150.97,-364.721 -97.65,-97.891 -227.05,-151.801 -364.34,-151.801 -31.87,0 -63.81,2.981 -95.2,8.883 5.93,-31.52 8.91,-63.609 8.88,-95.641 C 1631.92,230.949 1400.74,0 1116.85,0"
         style="fill:#100f0d;fill-opacity:1;fill-rule:nonzero;stroke:none"
         id="path12" />
      <path
         d="m 2004.77,831.262 c -76.82,-77 -178.48,-119.41 -286.27,-119.41 -95.6,0 -188.39,33.937 -261.4,95.668 l -1.42,1.152 -30.47,-30.473 c 0.38,-0.539 0.74,-1.09 1.17,-1.597 61.69,-73.032 95.61,-165.961 95.53,-261.68 -0.1,-107.551 -42.46,-209.024 -119.27,-285.731 -76.79,-76.679 -178.28,-118.91 -285.79,-118.91 h -1.56 c -222.458,0.86 -403.438,182.547 -403.438,405.028 0,95.589 33.945,188.402 95.503,261.211 0.458,0.531 0.844,1.109 1.247,1.691 l -30.497,30.488 -1.492,-1.258 c -72.898,-61.64 -165.703,-95.589 -261.308,-95.589 -222.407,0 -404.098,180.918 -405.02,403.298 -0.453,107.84 41.578,209.74 118.348,286.92 76.754,77.15 178.398,119.72 286.211,119.84 h 0.461 c 95.597,-0.01 188.394,-33.95 261.41,-95.68 l 1.39,-1.12 30.469,30.47 c -0.375,0.53 -0.722,1.07 -1.148,1.58 -61.633,72.89 -95.574,165.7 -95.574,261.29 0,222.47 180.949,404.19 403.288,405.08 h 1.71 c 107.49,0 208.98,-42.24 285.78,-118.93 76.81,-76.72 119.17,-178.21 119.28,-285.75 0.09,-95.73 -33.84,-188.67 -95.61,-261.78 -0.39,-0.48 -0.72,-0.99 -1.07,-1.49 l 30.5,-30.5 1.47,1.24 c 72.9,61.64 165.7,95.59 261.3,95.59 222.82,0 404.51,-181.27 405.03,-404.07 0.25,-107.79 -41.92,-209.57 -118.76,-286.578 z M 1718.5,1564.71 c -70.52,0 -139.66,-16.71 -201.87,-48.12 31.44,62.31 48.14,131.62 48.08,202.3 -0.12,118.97 -46.94,231.19 -131.84,315.99 -84.87,84.76 -197.11,131.45 -316.02,131.45 h -1.8 c -245.925,-0.99 -445.999,-201.91 -445.999,-447.88 0,-70.51 16.707,-139.66 48.066,-201.81 -62.152,31.36 -131.297,48.06 -201.812,48.07 h -0.504 C 395.527,1564.57 283.121,1517.53 198.289,1432.25 113.441,1346.95 66.9883,1234.27 67.4844,1114.97 68.5078,869.09 269.398,669.051 515.305,669.051 c 70.531,0 139.679,16.711 201.804,48.051 C 685.754,654.949 669.051,585.809 669.051,515.309 669.051,269.32 869.16,68.4297 1115.21,67.4805 h 1.64 c 118.92,0 231.16,46.6675 316.03,131.4295 84.9,84.781 131.72,197 131.83,315.969 0.06,70.66 -16.64,139.953 -48.08,202.262 62.17,-31.379 131.33,-48.09 201.87,-48.09 119.23,0 231.66,46.871 316.57,131.98 84.92,85.117 131.54,197.668 131.26,316.909 -0.58,246.35 -201.47,446.77 -447.83,446.77"
         style="fill:#100f0d;fill-opacity:1;fill-rule:nonzero;stroke:none"
         id="path14" />
      <path
         d="m 1586.04,1086.66 h 0.03 c 0.05,66.97 -0.04,134.07 -0.31,200.71 -0.1,23.58 6.06,43.77 18.75,61.37 -17.9,-0.01 -49.96,-0.03 -49.96,-0.03 -3.83,0 -3.83,0 -7.45,-3.5 l -0.76,-0.74 c -1.45,-1.39 -2.98,-2.79 -4.55,-4.18 v -0.11 l -0.02,0.01 -240.13,-207.53 v 252.26 h -0.05 c 0,42.63 0.22,108.03 0.06,145.67 -0.07,17.6 1.68,42.83 19.15,67.58 l -41.11,-0.03 c -0.43,0 -0.88,0 -1.33,0 -0.13,0 -0.27,0 -0.41,0 -0.44,0 -0.9,0 -1.32,0 l -41.12,0.03 c 17.48,-24.75 19.23,-49.98 19.15,-67.58 -0.15,-37.64 0.07,-103.04 0.07,-145.67 h -0.11 c 0,-64.04 0.01,-225.97 0.01,-292.89 L 1116.9,973.012 979.184,1092.03 c 0,66.92 0.004,228.85 0.007,292.89 h -0.105 c -0.004,42.63 0.219,108.03 0.062,145.67 -0.078,17.6 1.676,42.83 19.149,67.58 l -41.117,-0.03 c -0.422,0 -0.879,0 -1.321,0 -0.14,0 -0.277,0 -0.41,0 -0.445,0 -0.898,0 -1.324,0 l -41.117,0.03 c 17.472,-24.75 19.226,-49.98 19.148,-67.58 -0.156,-37.64 0.067,-103.04 0.067,-145.67 h -0.055 l 0.004,-252.26 -240.129,207.53 -0.02,-0.01 v 0.11 c -1.574,1.39 -3.105,2.79 -4.558,4.18 l -0.758,0.74 c -3.617,3.5 -3.617,3.5 -7.445,3.5 0,0 -32.063,0.02 -49.965,0.03 12.699,-17.6 18.855,-37.79 18.754,-61.37 -0.27,-66.64 -0.36,-133.74 -0.309,-200.71 h 0.031 c 0.016,-40.12 -0.21,-103.859 -0.058,-140.18 0.07,-16.601 -1.582,-40.398 -18.067,-63.761 l 38.793,0.031 c 0.403,0 0.829,0 1.25,0 0.129,0 0.258,0 0.383,0 0.422,0 0.852,0 1.25,0 l 38.797,-0.031 c -16.488,23.363 -18.141,47.16 -18.07,63.761 0.152,36.321 -0.028,335.85 -0.028,335.85 l 240.149,-207.5 0.023,-312.76 h 0.024 c -0.024,-42.398 -0.207,-101.519 -0.063,-136.582 0.078,-17.597 -1.676,-42.816 -19.148,-67.566 l 41.117,0.019 c 0.426,0 0.879,0 1.324,0 0.137,0 0.274,0 0.41,0 0.442,0 0.899,0 1.321,0 l 41.117,-0.019 c -17.473,24.75 -19.227,49.969 -19.149,67.566 0.145,35.063 -0.039,94.184 -0.062,136.582 h 0.07 c 0,0 0.024,180.559 0.028,272.14 L 1116.77,915.32 v -0.121 l 0.01,-0.008 0.05,0.059 0.05,-0.059 0.02,0.02 0.03,-0.02 0.05,0.059 0.05,-0.059 0.01,0.008 v 0.121 l 137.59,118.89 c 0,-91.581 0.02,-272.14 0.02,-272.14 h 0.07 c -0.02,-42.398 -0.2,-101.519 -0.06,-136.582 0.08,-17.597 -1.67,-42.816 -19.15,-67.566 l 41.12,0.019 c 0.42,0 0.88,0 1.32,0 0.14,0 0.27,0 0.41,0 0.45,0 0.9,0 1.33,0 l 41.11,-0.019 c -17.47,24.75 -19.22,49.969 -19.15,67.566 0.15,35.063 -0.03,94.184 -0.06,136.582 h 0.02 l 0.03,312.76 240.15,207.5 c 0,0 -0.18,-299.529 -0.03,-335.85 0.07,-16.601 -1.58,-40.398 -18.07,-63.761 l 38.8,0.031 c 0.4,0 0.82,0 1.24,0 0.13,0 0.26,0 0.39,0 0.42,0 0.85,0 1.25,0 l 38.79,-0.031 c -16.48,23.363 -18.14,47.16 -18.06,63.761 0.15,36.321 -0.08,100.06 -0.06,140.18"
         style="fill:#100f0d;fill-opacity:1;fill-rule:nonzero;stroke:none"
         id="path16" />
      <path
         d="m 1793.69,493.422 c -4.67,2.609 -12.17,3.918 -22.49,3.918 h -15.87 v -38.192 h 16.8 c 7.86,0 13.77,0.782 17.71,2.352 7.24,2.879 10.88,8.371 10.88,16.48 0,7.68 -2.34,12.821 -7.03,15.442 z m -20.05,16.609 c 13.08,0 22.67,-1.269 28.78,-3.801 10.89,-4.539 16.35,-13.441 16.35,-26.71 0,-9.418 -3.43,-16.36 -10.28,-20.821 -3.65,-2.347 -8.73,-4.051 -15.24,-5.097 8.24,-1.301 14.27,-4.743 18.09,-10.321 3.82,-5.57 5.73,-11.019 5.73,-16.332 v -7.711 c 0,-2.437 0.09,-5.047 0.26,-7.84 0.17,-2.789 0.48,-4.609 0.91,-5.476 l 0.66,-1.313 h -17.4 c -0.09,0.34 -0.17,0.692 -0.26,1.039 -0.09,0.34 -0.17,0.743 -0.26,1.184 l -0.39,3.379 v 8.348 c 0,12.171 -3.31,20.211 -9.94,24.121 -3.93,2.261 -10.82,3.39 -20.67,3.39 h -14.65 v -41.461 h -18.57 v 105.422 z m -56.5,5.36 c -16.05,-16.129 -24.07,-35.621 -24.07,-58.461 0,-23.02 7.98,-42.641 23.94,-58.86 16.05,-16.218 35.54,-24.332 58.46,-24.332 22.93,0 42.42,8.114 58.47,24.332 16.05,16.219 24.07,35.84 24.07,58.86 0,22.84 -8.02,42.332 -24.07,58.461 -16.13,16.218 -35.62,24.328 -58.47,24.328 -22.75,0 -42.2,-8.11 -58.33,-24.328 z M 1843.49,388.91 c -18.75,-18.828 -41.43,-28.25 -68.02,-28.25 -26.59,0 -49.21,9.422 -67.88,28.25 -18.57,18.75 -27.86,41.461 -27.86,68.149 0,26.421 9.38,49 28.12,67.75 18.67,18.66 41.2,27.992 67.62,27.992 26.59,0 49.27,-9.332 68.02,-27.992 18.74,-18.661 28.12,-41.25 28.12,-67.75 0,-26.598 -9.38,-49.309 -28.12,-68.149"
         style="fill:#100f0d;fill-opacity:1;fill-rule:nonzero;stroke:none"
         id="path18" />
    </g>
  </g>
</svg>
